<svg viewBox="0 0 7644 7734" fill="none" xmlns="http://www.w3.org/2000/svg">
  <path fill-rule="evenodd" clip-rule="evenodd" d="M7433.05 5076.78c-13.62 39.2-47.5 61.35-83.31 63.93-5.82 1.08-11.83 1.66-17.97 1.69l-7008.4 32.66c-6.159.03-12.19-.5-18.047-1.54-35.404-3.23-68.402-25.54-81.915-63.28C79.3348 4707.77.8574 4274.08.8574 3822.07.8574 1711.53 1711.79.5977 3822.33.5977S7643.8 1711.53 7643.8 3822.07c0 439.51-74.19 861.7-210.75 1254.71Zm-295.3-133.48-6567.07 30.6 1535.27-1408.06c38.23-35.07 96.94-35.07 135.18 0l661.14 606.36c42.68 39.14 109.59 33.96 145.73-11.3l1654.32-2071.56c40.04-50.13 116.25-50.13 156.28 0L7137.75 4943.3ZM605.219 5492.67c-55.228.15-99.878 45.04-99.728 100.27.149 55.23 45.042 99.88 100.27 99.73l6499.979-17.61c55.23-.15 99.88-45.04 99.73-100.27-.15-55.23-45.05-99.88-100.27-99.73l-6499.981 17.61Zm150.272 616.53c-.15-55.23 44.5-100.12 99.728-100.27l5999.981-16.26c55.23-.15 100.12 44.5 100.27 99.73.15 55.23-44.5 100.12-99.73 100.27l-5999.979 16.26c-55.228.15-100.121-44.5-100.27-99.73Zm599.719 413.28c-55.23.15-99.88 45.04-99.73 100.27.15 55.23 45.05 99.88 100.27 99.73l4999.98-13.55c55.23-.15 99.88-45.04 99.73-100.27-.15-55.23-45.04-99.88-100.27-99.73l-4999.98 13.55Zm871.91 608.4c-.15-55.23 44.5-100.12 99.72-100.27l2999.99-8.13c55.23-.15 100.12 44.5 100.27 99.73.15 55.22-44.5 100.12-99.72 100.27l-2999.99 8.12c-55.23.15-100.12-44.5-100.27-99.72Zm1094.94 402.43c-55.23.15-99.88 45.04-99.73 100.27.15 55.23 45.05 99.88 100.27 99.73l1000-2.71c55.23-.15 99.88-45.04 99.73-100.27-.15-55.23-45.04-99.88-100.27-99.73l-1000 2.71Z" fill="#939393"/>
</svg>
