<svg class="logo-variation" viewBox="0 0 10046 11151" fill="none" xmlns="http://www.w3.org/2000/svg">
  <path class="sun" fill-rule="evenodd" clip-rule="evenodd" d="M8460.12 5140.78c35.8-2.58 69.68-24.73 83.3-63.93 136.55-393.01 210.75-815.19 210.75-1254.71C8754.17 1711.6 7043.24.6719 4932.7.6719 2822.15.6719 1111.22 1711.6 1111.22 3822.14c0 452.02 78.48 885.7 222.55 1288.17 13.51 37.74 46.5 60.04 81.9 63.28 5.86 1.04 11.9 1.57 18.07 1.54l7008.4-32.65c6.14-.03 12.15-.61 17.98-1.7Zm-6779.08-166.8 6567.07-30.6-2279.14-2853.97c-40.04-50.13-116.25-50.13-156.28 0L4158.36 4160.97c-36.14 45.26-103.05 50.45-145.73 11.3l-661.13-606.36c-38.24-35.07-96.95-35.07-135.19 0L1681.04 4973.98Z"/>
  <path class="line-1" d="m1715.86 5592.73 6499.97-17.61"/>
  <path class="line-2" d="m1965.86 6109 5999.97-16.26"/>
  <path class="line-3" d="M2465.85 6622.55 7465.83 6609"/>
  <path class="line-4" d="m3437.48 7130.67 2999.99-8.13"/>
  <path class="line-5" d="m4432.7 7633.38 1000-2.71"/>
  <path class="logo-text" d="M2813.61 9206.66c-53.33 0-104.33-8-153-24-48.66-16.67-87-38-115-64l37-78c26.67 23.33 60.67 42.66 102 58 41.34 15.33 84.34 23 129 23 40.67 0 73.67-4.67 99-14 25.34-9.34 44-22 56-38 12-16.67 18-35.34 18-56 0-24-8-43.34-24-58-15.33-14.67-35.66-26.34-61-35-24.66-9.34-52-17.34-82-24-30-6.67-60.33-14.34-91-23-30-9.34-57.66-21-83-35-24.66-14-44.66-32.67-60-56-15.33-24-23-54.67-23-92 0-36 9.34-69 28-99 19.34-30.67 48.67-55 88-73 40-18.67 90.67-28 152-28 40.67 0 81 5.33 121 16 40 10.66 74.67 26 104 46l-33 80c-30-20-61.66-34.34-95-43-33.33-9.34-65.66-14-97-14-39.33 0-71.66 5-97 15-25.33 10-44 23.33-56 40-11.33 16.66-17 35.33-17 56 0 24.66 7.67 44.33 23 59 16 14.66 36.34 26.33 61 35 25.34 8.66 53 16.66 83 24 30 6.66 60 14.33 90 23 30.67 8.66 58.34 20 83 34 25.34 14 45.67 32.66 61 56 15.34 23.33 23 53.33 23 90 0 35.33-9.66 68.33-29 99-19.33 30-49.33 54.33-90 73-40 18-90.66 27-152 27Zm807.1 0c-92 0-164.34-26.34-217-79-52.67-52.67-79-129.67-79-231v-398h100v394c0 78 17 135 51 171 34.66 36 83.33 54 146 54 63.33 0 112-18 146-54 34.66-36 52-93 52-171v-394h97v398c0 101.33-26.34 178.33-79 231-52 52.66-124.34 79-217 79Zm601.01-8v-700h82l463 575h-43v-575h100v700h-82l-463-575h43v575h-100Zm911.53 0v-700h273c61.33 0 113.66 9.66 157 29 43.33 19.33 76.66 47.33 100 84 23.33 36.66 35 80.33 35 131 0 50.66-11.67 94.33-35 131-23.34 36-56.67 63.66-100 83-43.34 19.33-95.67 29-157 29h-218l45-46v259h-100Zm468 0-178-254h107l180 254h-109Zm-368-249-45-49h215c64 0 112.33-13.67 145-41 33.33-28 50-67 50-117s-16.67-88.67-50-116c-32.67-27.34-81-41-145-41h-215l45-50v414Zm726.56 249v-700h100v700h-100Zm613.57 8c-53.33 0-104.33-8-153-24-48.67-16.67-87-38-115-64l37-78c26.67 23.33 60.67 42.66 102 58 41.33 15.33 84.33 23 129 23 40.67 0 73.67-4.67 99-14 25.33-9.34 44-22 56-38 12-16.67 18-35.34 18-56 0-24-8-43.34-24-58-15.33-14.67-35.67-26.34-61-35-24.67-9.34-52-17.34-82-24-30-6.67-60.33-14.34-91-23-30-9.34-57.67-21-83-35-24.67-14-44.67-32.67-60-56-15.33-24-23-54.67-23-92 0-36 9.33-69 28-99 19.33-30.67 48.67-55 88-73 40-18.67 90.67-28 152-28 40.67 0 81 5.33 121 16 40 10.66 74.67 26 104 46l-33 80c-30-20-61.67-34.34-95-43-33.33-9.34-65.67-14-97-14-39.33 0-71.67 5-97 15s-44 23.33-56 40c-11.33 16.66-17 35.33-17 56 0 24.66 7.67 44.33 23 59 16 14.66 36.33 26.33 61 35 25.33 8.66 53 16.66 83 24 30 6.66 60 14.33 90 23 30.67 8.66 58.33 20 83 34 25.33 14 45.67 32.66 61 56 15.33 23.33 23 53.33 23 90 0 35.33-9.67 68.33-29 99-19.33 30-49.33 54.33-90 73-40 18-90.67 27-152 27Zm608.09-406h360v85h-360v-85Zm9 311h408v87h-508v-700h494v87h-394v526ZM1542.46 9722.55h80v560.05h-80v-560.05Zm-321.6 560.05h-80v-560.05h80v560.05Zm328.8-249.6h-336.8v-69.65h336.8v69.65Zm490.82 254.4c-42.67 0-80.53-9.4-113.6-28-33.07-18.7-59.2-44.3-78.4-76.8-19.2-33.1-28.8-70.4-28.8-112 0-42.2 9.6-79.51 28.8-112.05 19.2-32.53 45.33-57.86 78.4-76 33.07-18.66 70.93-28 113.6-28 42.13 0 79.73 9.34 112.8 28 33.6 18.14 59.73 43.47 78.4 76 19.2 32 28.8 69.35 28.8 112.05 0 42.1-9.6 79.4-28.8 112-18.67 32.5-44.8 58.1-78.4 76.8-33.07 18.6-70.67 28-112.8 28Zm0-67.2c27.2 0 51.47-6.2 72.8-18.4 21.87-12.3 38.93-29.6 51.2-52 12.27-23 18.4-49.4 18.4-79.2 0-30.4-6.13-56.6-18.4-78.45-12.27-22.4-29.33-39.73-51.2-52-21.33-12.26-45.6-18.4-72.8-18.4-27.2 0-51.47 6.14-72.8 18.4-21.33 12.27-38.4 29.6-51.2 52-12.8 21.85-19.2 48.05-19.2 78.45 0 29.8 6.4 56.2 19.2 79.2 12.8 22.4 29.87 39.7 51.2 52 21.33 12.2 45.6 18.4 72.8 18.4Zm551.81 67.2c-42.66 0-75.73-11.5-99.2-34.4-23.46-23-35.2-55.8-35.2-98.4v-388.85h76.8v385.65c0 22.9 5.6 40.5 16.8 52.8 11.74 12.2 28.27 18.4 49.6 18.4 24 0 44-6.7 60-20l24 55.2c-11.73 10.1-25.86 17.6-42.4 22.4-16 4.8-32.8 7.2-50.4 7.2Zm-206.4-365.65v-63.2h270.4v63.2h-270.4Zm646.79 365.65c-45.33 0-85.33-9.4-120-28-34.13-18.7-60.8-44.3-80-76.8-18.67-32.6-28-69.9-28-112 0-42.2 9.07-79.51 27.2-112.05 18.67-32.53 44-57.86 76-76 32.53-18.66 69.07-28 109.6-28 41.07 0 77.33 9.07 108.8 27.2 31.47 18.14 56 43.74 73.6 76.8 18.13 32.54 27.2 70.65 27.2 114.45 0 3.2-.27 6.9-.8 11.2 0 4.2-.27 8.2-.8 12h-360.8v-55.2h320.8l-31.2 19.2c.53-27.2-5.07-51.5-16.8-72.85-11.73-21.33-28-37.86-48.8-49.6-20.27-12.26-44-18.4-71.2-18.4-26.67 0-50.4 6.14-71.2 18.4-20.8 11.74-37.07 28.54-48.8 50.4-11.73 21.35-17.6 45.85-17.6 73.65v12.8c0 28.2 6.4 53.6 19.2 76 13.33 21.8 31.73 38.9 55.2 51.2 23.47 12.2 50.4 18.4 80.8 18.4 25.07 0 47.73-4.3 68-12.8 20.8-8.6 38.93-21.4 54.4-38.4l42.4 49.6c-19.2 22.4-43.2 39.4-72 51.2-28.27 11.7-60 17.6-95.2 17.6Zm381.04-4.8v-593.65h76.8v593.65h-76.8Zm425.04 4.8c-35.2 0-68.8-4.8-100.8-14.4-31.47-9.6-56.27-21.4-74.4-35.2l32-60.8c18.13 12.2 40.53 22.6 67.2 31.2 26.67 8.5 53.87 12.8 81.6 12.8 35.73 0 61.33-5.1 76.8-15.2 16-10.2 24-24.3 24-42.4 0-13.4-4.8-23.8-14.4-31.2-9.6-7.5-22.4-13.1-38.4-16.8-15.47-3.8-32.8-7-52-9.6-19.2-3.2-38.4-7-57.6-11.2-19.2-4.8-36.8-11.2-52.8-19.2-16-8.6-28.8-20-38.4-34.4-9.6-15-14.4-34.7-14.4-59.25 0-25.6 7.2-48 21.6-67.2 14.4-19.2 34.67-33.86 60.8-44 26.67-10.66 58.13-16 94.4-16 27.73 0 55.73 3.47 84 10.4 28.8 6.4 52.27 15.74 70.4 28l-32.8 60.8c-19.2-12.8-39.2-21.6-60-26.4-20.8-4.8-41.6-7.2-62.4-7.2-33.6 0-58.67 5.6-75.2 16.8-16.53 10.67-24.8 24.54-24.8 41.6 0 14.4 4.8 25.65 14.4 33.65 10.13 7.4 22.93 13.3 38.4 17.6 16 4.2 33.6 8 52.8 11.2 19.2 2.6 38.4 6.4 57.6 11.2 19.2 4.2 36.53 10.4 52 18.4 16 8 28.8 19.2 38.4 33.6 10.13 14.4 15.2 33.6 15.2 57.6 0 25.6-7.47 47.7-22.4 66.4-14.93 18.6-36 33.3-63.2 44-27.2 10.1-59.73 15.2-97.6 15.2Zm813.23 1.6c-37.87 0-71.47-6.2-100.8-18.4-29.34-12.3-52.54-29.4-69.6-51.2-17.07-21.9-25.6-47.2-25.6-76 0-25.1 5.6-48 16.8-68.8 11.2-20.8 29.06-40.8 53.6-60 24.53-19.78 56.8-40.05 96.8-60.85 32.53-17.06 57.86-32 76-44.8 18.66-12.8 31.73-24.8 39.2-36 8-11.73 12-24.26 12-37.6 0-18.13-6.4-32.8-19.2-44-12.8-11.73-31.2-17.6-55.2-17.6-25.07 0-44.8 6.4-59.2 19.2-13.87 12.27-20.8 28.54-20.8 48.8 0 10.14 1.6 20 4.8 29.6 3.73 9.07 10.13 19.47 19.2 31.2 9.6 11.2 23.2 25.6 40.8 43.2l296 294.45-43.2 51.2-314.4-312.85c-18.67-18.66-33.34-35.2-44-49.6-10.67-14.93-18.4-29.33-23.2-43.2-4.8-13.86-7.2-28-7.2-42.4 0-25.06 6.13-46.93 18.4-65.6 12.8-19.2 30.4-33.86 52.8-44 22.93-10.66 49.6-16 80-16 28.26 0 52.8 4.8 73.6 14.4 20.8 9.07 36.8 22.4 48 40 11.73 17.07 17.6 37.87 17.6 62.4 0 21.34-5.34 41.07-16 59.2-10.14 18.14-26.67 35.74-49.6 52.8-22.94 17.07-53.87 35.47-92.8 55.25-32 16.5-57.07 32-75.2 46.4-18.14 13.8-31.2 27.7-39.2 41.6-7.47 13.8-11.2 29-11.2 45.6 0 17.6 5.06 33.3 15.2 47.2 10.66 13.3 25.33 23.7 44 31.2 19.2 7.4 41.33 11.2 66.4 11.2 35.73 0 68-7.8 96.8-23.2 28.8-15.5 52.8-38.7 72-69.6 19.73-31 34.13-69.4 43.2-115.2l61.6 20c-10.67 53.8-29.07 99.4-55.2 136.8-25.6 37.3-57.34 65.8-95.2 85.6-37.87 19.7-80.54 29.6-128 29.6Zm775.28-6.4v-560.05h218.4c49.06 0 90.93 7.74 125.6 23.2 34.66 15.47 61.33 37.87 80 67.2 18.66 29.34 28 64.27 28 104.8 0 40.54-9.34 75.47-28 104.85-18.67 28.8-45.34 50.9-80 66.4-34.67 15.4-76.54 23.2-125.6 23.2h-174.4l36-36.8v207.2h-80Zm374.4 0-142.4-203.2h85.6l144 203.2h-87.2Zm-294.4-199.2-36-39.2h172c51.2 0 89.86-11 116-32.8 26.66-22.45 40-53.65 40-93.65 0-40-13.34-70.93-40-92.8-26.14-21.86-64.8-32.8-116-32.8h-172l36-40v331.25Zm758.85 204c-45.34 0-85.34-9.4-120-28-34.14-18.7-60.8-44.3-80-76.8-18.67-32.6-28-69.9-28-112 0-42.2 9.06-79.51 27.2-112.05 18.66-32.53 44-57.86 76-76 32.53-18.66 69.06-28 109.6-28 41.06 0 77.33 9.07 108.8 27.2 31.46 18.14 56 43.74 73.6 76.8 18.13 32.54 27.2 70.65 27.2 114.45 0 3.2-.27 6.9-.8 11.2 0 4.2-.27 8.2-.8 12h-360.8v-55.2h320.8l-31.2 19.2c.53-27.2-5.07-51.5-16.8-72.85-11.74-21.33-28-37.86-48.8-49.6-20.27-12.26-44-18.4-71.2-18.4-26.67 0-50.4 6.14-71.2 18.4-20.8 11.74-37.07 28.54-48.8 50.4-11.74 21.35-17.6 45.85-17.6 73.65v12.8c0 28.2 6.4 53.6 19.2 76 13.33 21.8 31.73 38.9 55.2 51.2 23.46 12.2 50.4 18.4 80.8 18.4 25.06 0 47.73-4.3 68-12.8 20.8-8.6 38.93-21.4 54.4-38.4l42.4 49.6c-19.2 22.4-43.2 39.4-72 51.2-28.27 11.7-60 17.6-95.2 17.6Zm502.64 0c-35.2 0-68.8-4.8-100.8-14.4-31.47-9.6-56.27-21.4-74.4-35.2l32-60.8c18.13 12.2 40.53 22.6 67.2 31.2 26.67 8.5 53.87 12.8 81.6 12.8 35.73 0 61.33-5.1 76.8-15.2 16-10.2 24-24.3 24-42.4 0-13.4-4.8-23.8-14.4-31.2-9.6-7.5-22.4-13.1-38.4-16.8-15.47-3.8-32.8-7-52-9.6-19.2-3.2-38.4-7-57.6-11.2-19.2-4.8-36.8-11.2-52.8-19.2-16-8.6-28.8-20-38.4-34.4-9.6-15-14.4-34.7-14.4-59.25 0-25.6 7.2-48 21.6-67.2 14.4-19.2 34.67-33.86 60.8-44 26.67-10.66 58.13-16 94.4-16 27.73 0 55.73 3.47 84 10.4 28.8 6.4 52.27 15.74 70.4 28l-32.8 60.8c-19.2-12.8-39.2-21.6-60-26.4-20.8-4.8-41.6-7.2-62.4-7.2-33.6 0-58.67 5.6-75.2 16.8-16.53 10.67-24.8 24.54-24.8 41.6 0 14.4 4.8 25.65 14.4 33.65 10.13 7.4 22.93 13.3 38.4 17.6 16 4.2 33.6 8 52.8 11.2 19.2 2.6 38.4 6.4 57.6 11.2 19.2 4.2 36.53 10.4 52 18.4 16 8 28.8 19.2 38.4 33.6 10.13 14.4 15.2 33.6 15.2 57.6 0 25.6-7.47 47.7-22.4 66.4-14.93 18.6-36 33.3-63.2 44-27.2 10.1-59.73 15.2-97.6 15.2Zm540.78 0c-42.66 0-80.53-9.4-113.6-28-33.06-18.7-59.2-44.3-78.4-76.8-19.2-33.1-28.8-70.4-28.8-112 0-42.2 9.6-79.51 28.8-112.05 19.2-32.53 45.34-57.86 78.4-76 33.07-18.66 70.94-28 113.6-28 42.14 0 79.74 9.34 112.8 28 33.6 18.14 59.74 43.47 78.4 76 19.2 32 28.8 69.35 28.8 112.05 0 42.1-9.6 79.4-28.8 112-18.66 32.5-44.8 58.1-78.4 76.8-33.06 18.6-70.66 28-112.8 28Zm0-67.2c27.2 0 51.47-6.2 72.8-18.4 21.87-12.3 38.94-29.6 51.2-52 12.27-23 18.4-49.4 18.4-79.2 0-30.4-6.13-56.6-18.4-78.45-12.26-22.4-29.33-39.73-51.2-52-21.33-12.26-45.6-18.4-72.8-18.4-27.2 0-51.46 6.14-72.8 18.4-21.33 12.27-38.4 29.6-51.2 52-12.8 21.85-19.2 48.05-19.2 78.45 0 29.8 6.4 56.2 19.2 79.2 12.8 22.4 29.87 39.7 51.2 52 21.34 12.2 45.6 18.4 72.8 18.4Zm406.21 62.4v-424.05h73.6v115.2l-7.2-28.8c11.74-29.33 31.47-51.73 59.2-67.2 27.74-15.46 61.87-23.2 102.4-23.2v74.4c-3.2-.53-6.4-.8-9.6-.8h-8c-41.06 0-73.6 12.27-97.6 36.8-24 24.54-36 60.05-36 106.45v211.2h-76.8Zm565.45 4.8c-42.67 0-75.73-11.5-99.2-34.4-23.47-23-35.2-55.8-35.2-98.4v-388.85h76.8v385.65c0 22.9 5.6 40.5 16.8 52.8 11.73 12.2 28.27 18.4 49.6 18.4 24 0 44-6.7 60-20l24 55.2c-11.73 10.1-25.87 17.6-42.4 22.4-16 4.8-32.8 7.2-50.4 7.2Zm-206.4-365.65v-63.2h270.4v63.2h-270.4Zm593.65 365.65c-35.2 0-68.8-4.8-100.8-14.4-31.47-9.6-56.27-21.4-74.4-35.2l32-60.8c18.13 12.2 40.53 22.6 67.2 31.2 26.67 8.5 53.87 12.8 81.6 12.8 35.73 0 61.33-5.1 76.8-15.2 16-10.2 24-24.3 24-42.4 0-13.4-4.8-23.8-14.4-31.2-9.6-7.5-22.4-13.1-38.4-16.8-15.47-3.8-32.8-7-52-9.6-19.2-3.2-38.4-7-57.6-11.2-19.2-4.8-36.8-11.2-52.8-19.2-16-8.6-28.8-20-38.4-34.4-9.6-15-14.4-34.7-14.4-59.25 0-25.6 7.2-48 21.6-67.2 14.4-19.2 34.67-33.86 60.8-44 26.67-10.66 58.13-16 94.4-16 27.73 0 55.73 3.47 84 10.4 28.8 6.4 52.27 15.74 70.4 28l-32.8 60.8c-19.2-12.8-39.2-21.6-60-26.4-20.8-4.8-41.6-7.2-62.4-7.2-33.6 0-58.67 5.6-75.2 16.8-16.53 10.67-24.8 24.54-24.8 41.6 0 14.4 4.8 25.65 14.4 33.65 10.13 7.4 22.93 13.3 38.4 17.6 16 4.2 33.6 8 52.8 11.2 19.2 2.6 38.4 6.4 57.6 11.2 19.2 4.2 36.53 10.4 52 18.4 16 8 28.8 19.2 38.4 33.6 10.13 14.4 15.2 33.6 15.2 57.6 0 25.6-7.47 47.7-22.4 66.4-14.93 18.6-36 33.3-63.2 44-27.2 10.1-59.73 15.2-97.6 15.2Z"/>
  <path class="line-text" d="M1255.04 9484.95h7488.1">
</svg>
