<svg viewBox="0 0 10047 11150" fill="none" xmlns="http://www.w3.org/2000/svg">
  <path d="m4433.07 7632.73 1000-2.71" stroke="#FEC135" stroke-width="200" stroke-linecap="round"/>
  <path fill-rule="evenodd" clip-rule="evenodd" d="M8460.49 5140.14c35.81-2.58 69.68-24.73 83.3-63.93 136.55-393.01 210.75-815.19 210.75-1254.71C8754.54 1710.96 7043.61.0312 4933.07.0312S1111.6 1710.96 1111.6 3821.5c0 452.02 78.47 885.7 222.55 1288.17 13.51 37.74 46.5 60.04 81.89 63.28 5.87 1.04 11.9 1.57 18.07 1.54l7008.4-32.65c6.14-.03 12.15-.61 17.98-1.7Zm-6779.07-166.8 6567.06-30.6-2279.14-2853.97c-40.03-50.13-116.25-50.13-156.28 0L4158.74 4160.33c-36.14 45.26-103.05 50.45-145.74 11.3l-661.13-606.36c-38.24-35.07-96.95-35.07-135.18 0L1681.42 4973.34Z" fill="#FF2D00"/>
  <path d="m1716.23 5592.09 6499.97-17.61" stroke="#FF4D00" stroke-width="200" stroke-linecap="round"/>
  <path d="m1966.23 6108.36 5999.98-16.26" stroke="#FF6700" stroke-width="200" stroke-linecap="round"/>
  <path d="m2466.22 6621.91 4999.99-13.55" stroke="#FF8100" stroke-width="200" stroke-linecap="round"/>
  <path d="m3437.86 7130.03 2999.99-8.13" stroke="#FFA700" stroke-width="200" stroke-linecap="round"/>
  <path d="M2813.99 9206.02c-53.34 0-104.34-8-153-24-48.67-16.67-87-38-115-64l37-78c26.66 23.33 60.66 42.66 102 58 41.33 15.33 84.33 23 129 23 40.66 0 73.66-4.67 99-14 25.33-9.34 44-22 56-38 12-16.67 18-35.34 18-56 0-24-8-43.34-24-58-15.34-14.67-35.67-26.34-61-35-24.67-9.34-52-17.34-82-24-30-6.67-60.34-14.34-91-23-30-9.34-57.67-21-83-35-24.67-14-44.67-32.67-60-56-15.34-24-23-54.67-23-92 0-36 9.33-69 28-99 19.33-30.67 48.66-55 88-73 40-18.67 90.66-28 152-28 40.66 0 81 5.33 121 16 40 10.66 74.66 26 104 46l-33 80c-30-20-61.67-34.34-95-43-33.34-9.34-65.67-14-97-14-39.34 0-71.67 5-97 15-25.34 10-44 23.33-56 40-11.34 16.66-17 35.33-17 56 0 24.66 7.66 44.33 23 59 16 14.66 36.33 26.33 61 35 25.33 8.66 53 16.66 83 24 30 6.66 60 14.33 90 23 30.66 8.66 58.33 20 83 34 25.33 14 45.66 32.66 61 56 15.33 23.33 23 53.33 23 90 0 35.33-9.67 68.33-29 99-19.34 30-49.34 54.33-90 73-40 18-90.67 27-152 27Zm807.09 0c-92 0-164.33-26.34-217-79-52.67-52.67-79-129.67-79-231v-398h100v394c0 78 17 135 51 171 34.67 36 83.33 54 146 54 63.33 0 112-18 146-54 34.67-36 52-93 52-171v-394h97v398c0 101.33-26.33 178.33-79 231-52 52.66-124.33 79-217 79Zm601.02-8v-700h82l463 575h-43v-575h100v700h-82l-463-575h43v575h-100Zm911.52 0v-700h273c61.33 0 113.67 9.66 157 29 43.33 19.33 76.67 47.33 100 84 23.33 36.66 35 80.33 35 131 0 50.66-11.67 94.33-35 131-23.33 36-56.67 63.66-100 83-43.33 19.33-95.67 29-157 29h-218l45-46v259h-100Zm468 0-178-254h107l180 254h-109Zm-368-249-45-49h215c64 0 112.33-13.67 145-41 33.33-28 50-67 50-117s-16.67-88.67-50-116c-32.67-27.34-81-41-145-41h-215l45-50v414Zm726.56 249v-700h100v700h-100Zm613.57 8c-53.33 0-104.33-8-153-24-48.67-16.67-87-38-115-64l37-78c26.67 23.33 60.67 42.66 102 58 41.33 15.33 84.33 23 129 23 40.67 0 73.67-4.67 99-14 25.33-9.34 44-22 56-38 12-16.67 18-35.34 18-56 0-24-8-43.34-24-58-15.33-14.67-35.67-26.34-61-35-24.67-9.34-52-17.34-82-24-30-6.67-60.33-14.34-91-23-30-9.34-57.67-21-83-35-24.67-14-44.67-32.67-60-56-15.33-24-23-54.67-23-92 0-36 9.33-69 28-99 19.33-30.67 48.67-55 88-73 40-18.67 90.67-28 152-28 40.67 0 81 5.33 121 16 40 10.66 74.67 26 104 46l-33 80c-30-20-61.67-34.34-95-43-33.33-9.34-65.67-14-97-14-39.33 0-71.67 5-97 15s-44 23.33-56 40c-11.33 16.66-17 35.33-17 56 0 24.66 7.67 44.33 23 59 16 14.66 36.33 26.33 61 35 25.33 8.66 53 16.66 83 24 30 6.66 60 14.33 90 23 30.67 8.66 58.33 20 83 34 25.33 14 45.67 32.66 61 56 15.33 23.33 23 53.33 23 90 0 35.33-9.67 68.33-29 99-19.33 30-49.33 54.33-90 73-40 18-90.67 27-152 27Zm608.1-406h360v85h-360v-85Zm9 311h408v87h-508v-700h494v87h-394v526ZM1542.83 9721.91h80v559.99h-80v-559.99Zm-321.6 559.99h-80v-559.99h80v559.99Zm328.8-249.6h-336.8v-69.59h336.8v69.59Zm490.82 254.4c-42.66 0-80.53-9.3-113.6-28-33.06-18.7-59.2-44.3-78.4-76.8-19.2-33.1-28.8-70.4-28.8-112 0-42.1 9.6-79.45 28.8-111.99 19.2-32.53 45.34-57.86 78.4-76 33.07-18.66 70.94-28 113.6-28 42.14 0 79.74 9.34 112.8 28 33.6 18.14 59.74 43.47 78.4 76 19.2 32 28.8 69.29 28.8 111.99 0 42.1-9.6 79.5-28.8 112-18.66 32.5-44.8 58.1-78.4 76.8-33.06 18.7-70.66 28-112.8 28Zm0-67.2c27.2 0 51.47-6.1 72.8-18.4 21.87-12.3 38.94-29.6 51.2-52 12.27-22.9 18.4-49.3 18.4-79.2 0-30.4-6.13-56.5-18.4-78.39-12.26-22.4-29.33-39.73-51.2-52-21.33-12.26-45.6-18.4-72.8-18.4-27.2 0-51.46 6.14-72.8 18.4-21.33 12.27-38.4 29.6-51.2 52-12.8 21.89-19.2 47.99-19.2 78.39 0 29.9 6.4 56.3 19.2 79.2 12.8 22.4 29.87 39.7 51.2 52 21.34 12.3 45.6 18.4 72.8 18.4Zm551.82 67.2c-42.67 0-75.74-11.5-99.2-34.4-23.47-22.9-35.2-55.7-35.2-98.4v-388.79h76.8v385.59c0 22.9 5.6 40.5 16.8 52.8 11.73 12.3 28.26 18.4 49.6 18.4 24 0 44-6.7 60-20l24 55.2c-11.74 10.1-25.87 17.6-42.4 22.4-16 4.8-32.8 7.2-50.4 7.2Zm-206.4-365.59v-63.2h270.4v63.2h-270.4Zm646.78 365.59c-45.33 0-85.33-9.3-120-28-34.13-18.7-60.8-44.3-80-76.8-18.66-32.5-28-69.9-28-112 0-42.1 9.07-79.45 27.2-111.99 18.67-32.53 44-57.86 76-76 32.54-18.66 69.07-28 109.6-28 41.07 0 77.34 9.07 108.8 27.2 31.47 18.14 56 43.74 73.6 76.8 18.14 32.54 27.2 70.69 27.2 114.39 0 3.2-.26 6.9-.8 11.2 0 4.3-.26 8.3-.8 12h-360.8v-55.2h320.8l-31.2 19.2c.54-27.2-5.06-51.5-16.8-72.79-11.73-21.33-28-37.86-48.8-49.6-20.26-12.26-44-18.4-71.2-18.4-26.66 0-50.4 6.14-71.2 18.4-20.8 11.74-37.06 28.54-48.8 50.4-11.73 21.29-17.6 45.89-17.6 73.59v12.8c0 28.3 6.4 53.6 19.2 76 13.34 21.9 31.74 38.9 55.2 51.2 23.47 12.3 50.4 18.4 80.8 18.4 25.07 0 47.74-4.3 68-12.8 20.8-8.5 38.94-21.3 54.4-38.4l42.4 49.6c-19.2 22.4-43.2 39.5-72 51.2-28.26 11.7-60 17.6-95.2 17.6Zm381.05-4.8v-593.59h76.8v593.59h-76.8Zm425.03 4.8c-35.2 0-68.8-4.8-100.8-14.4-31.46-9.6-56.26-21.3-74.4-35.2l32-60.8c18.14 12.3 40.54 22.7 67.2 31.2 26.67 8.5 53.87 12.8 81.6 12.8 35.74 0 61.34-5.1 76.8-15.2 16-10.1 24-24.3 24-42.4 0-13.3-4.8-23.7-14.4-31.2-9.6-7.5-22.4-13.1-38.4-16.8-15.46-3.7-32.8-6.9-52-9.6-19.2-3.2-38.4-6.9-57.6-11.2-19.2-4.8-36.8-11.2-52.8-19.2-16-8.5-28.8-20-38.4-34.4-9.6-14.9-14.4-34.7-14.4-59.19 0-25.6 7.2-48 21.6-67.2 14.4-19.2 34.67-33.86 60.8-44 26.67-10.66 58.14-16 94.4-16 27.74 0 55.74 3.47 84 10.4 28.8 6.4 52.27 15.74 70.4 28l-32.8 60.8c-19.2-12.8-39.2-21.6-60-26.4-20.8-4.8-41.6-7.2-62.4-7.2-33.6 0-58.66 5.6-75.2 16.8-16.53 10.67-24.8 24.54-24.8 41.6 0 14.4 4.8 25.59 14.4 33.59 10.14 7.5 22.94 13.3 38.4 17.6 16 4.3 33.6 8 52.8 11.2 19.2 2.7 38.4 6.4 57.6 11.2 19.2 4.3 36.54 10.4 52 18.4 16 8 28.8 19.2 38.4 33.6 10.14 14.4 15.2 33.6 15.2 57.6 0 25.6-7.46 47.7-22.4 66.4-14.93 18.7-36 33.3-63.2 44-27.2 10.1-59.73 15.2-97.6 15.2Zm813.23 1.6c-37.87 0-71.47-6.1-100.8-18.4-29.33-12.3-52.53-29.3-69.6-51.2-17.07-21.9-25.6-47.2-25.6-76 0-25.1 5.6-48 16.8-68.8 11.2-20.8 29.07-40.8 53.6-60 24.53-19.72 56.8-39.99 96.8-60.79 32.53-17.06 57.87-32 76-44.8 18.67-12.8 31.73-24.8 39.2-36 8-11.73 12-24.26 12-37.6 0-18.13-6.4-32.8-19.2-44-12.8-11.73-31.2-17.6-55.2-17.6-25.07 0-44.8 6.4-59.2 19.2-13.87 12.27-20.8 28.54-20.8 48.8 0 10.14 1.6 20 4.8 29.6 3.73 9.07 10.13 19.47 19.2 31.2 9.6 11.2 23.2 25.6 40.8 43.2l296 294.39-43.2 51.2-314.4-312.79c-18.67-18.66-33.33-35.2-44-49.6-10.67-14.93-18.4-29.33-23.2-43.2-4.8-13.86-7.2-28-7.2-42.4 0-25.06 6.13-46.93 18.4-65.6 12.8-19.2 30.4-33.86 52.8-44 22.93-10.66 49.6-16 80-16 28.27 0 52.8 4.8 73.6 14.4 20.8 9.07 36.8 22.4 48 40 11.73 17.07 17.6 37.87 17.6 62.4 0 21.34-5.33 41.07-16 59.2-10.13 18.14-26.67 35.74-49.6 52.8-22.93 17.07-53.87 35.47-92.8 55.19-32 16.5-57.07 32-75.2 46.4-18.13 13.9-31.2 27.7-39.2 41.6-7.47 13.9-11.2 29.1-11.2 45.6 0 17.6 5.07 33.3 15.2 47.2 10.67 13.3 25.33 23.7 44 31.2 19.2 7.5 41.33 11.2 66.4 11.2 35.73 0 68-7.7 96.8-23.2 28.8-15.5 52.8-38.7 72-69.6 19.73-30.9 34.13-69.3 43.2-115.2l61.6 20c-10.67 53.9-29.07 99.5-55.2 136.8-25.6 37.3-57.33 65.9-95.2 85.6-37.87 19.7-80.53 29.6-128 29.6Zm775.28-6.4v-559.99h218.4c49.07 0 90.93 7.74 125.6 23.2 34.67 15.47 61.33 37.87 80 67.2 18.67 29.34 28 64.27 28 104.8 0 40.54-9.33 75.47-28 104.79-18.67 28.8-45.33 50.9-80 66.4-34.67 15.5-76.53 23.2-125.6 23.2h-174.4l36-36.8v207.2h-80Zm374.4 0-142.4-203.2h85.6l144 203.2h-87.2Zm-294.4-199.2-36-39.2h172c51.2 0 89.87-10.9 116-32.8 26.67-22.39 40-53.59 40-93.59s-13.33-70.93-40-92.8c-26.13-21.86-64.8-32.8-116-32.8h-172l36-40v331.19Zm758.85 204c-45.33 0-85.33-9.3-120-28-34.13-18.7-60.8-44.3-80-76.8-18.67-32.5-28-69.9-28-112 0-42.1 9.07-79.45 27.2-111.99 18.67-32.53 44-57.86 76-76 32.53-18.66 69.07-28 109.6-28 41.07 0 77.33 9.07 108.8 27.2 31.47 18.14 56 43.74 73.6 76.8 18.13 32.54 27.2 70.69 27.2 114.39 0 3.2-.27 6.9-.8 11.2 0 4.3-.27 8.3-.8 12h-360.8v-55.2h320.8l-31.2 19.2c.53-27.2-5.07-51.5-16.8-72.79-11.73-21.33-28-37.86-48.8-49.6-20.27-12.26-44-18.4-71.2-18.4-26.67 0-50.4 6.14-71.2 18.4-20.8 11.74-37.07 28.54-48.8 50.4-11.73 21.29-17.6 45.89-17.6 73.59v12.8c0 28.3 6.4 53.6 19.2 76 13.33 21.9 31.73 38.9 55.2 51.2 23.47 12.3 50.4 18.4 80.8 18.4 25.07 0 47.73-4.3 68-12.8 20.8-8.5 38.93-21.3 54.4-38.4l42.4 49.6c-19.2 22.4-43.2 39.5-72 51.2-28.27 11.7-60 17.6-95.2 17.6Zm502.64 0c-35.2 0-68.8-4.8-100.8-14.4-31.46-9.6-56.26-21.3-74.4-35.2l32-60.8c18.14 12.3 40.54 22.7 67.2 31.2 26.67 8.5 53.87 12.8 81.6 12.8 35.74 0 61.34-5.1 76.8-15.2 16-10.1 24-24.3 24-42.4 0-13.3-4.8-23.7-14.4-31.2-9.6-7.5-22.4-13.1-38.4-16.8-15.46-3.7-32.8-6.9-52-9.6-19.2-3.2-38.4-6.9-57.6-11.2-19.2-4.8-36.8-11.2-52.8-19.2-16-8.5-28.8-20-38.4-34.4-9.6-14.9-14.4-34.7-14.4-59.19 0-25.6 7.2-48 21.6-67.2 14.4-19.2 34.67-33.86 60.8-44 26.67-10.66 58.14-16 94.4-16 27.74 0 55.74 3.47 84 10.4 28.8 6.4 52.27 15.74 70.4 28l-32.8 60.8c-19.2-12.8-39.2-21.6-60-26.4-20.8-4.8-41.6-7.2-62.4-7.2-33.6 0-58.66 5.6-75.2 16.8-16.53 10.67-24.8 24.54-24.8 41.6 0 14.4 4.8 25.59 14.4 33.59 10.14 7.5 22.94 13.3 38.4 17.6 16 4.3 33.6 8 52.8 11.2 19.2 2.7 38.4 6.4 57.6 11.2 19.2 4.3 36.54 10.4 52 18.4 16 8 28.8 19.2 38.4 33.6 10.14 14.4 15.2 33.6 15.2 57.6 0 25.6-7.46 47.7-22.4 66.4-14.93 18.7-36 33.3-63.2 44-27.2 10.1-59.73 15.2-97.6 15.2Zm540.79 0c-42.67 0-80.54-9.3-113.6-28-33.07-18.7-59.2-44.3-78.4-76.8-19.2-33.1-28.8-70.4-28.8-112 0-42.1 9.6-79.45 28.8-111.99 19.2-32.53 45.33-57.86 78.4-76 33.06-18.66 70.93-28 113.6-28 42.13 0 79.73 9.34 112.8 28 33.6 18.14 59.73 43.47 78.4 76 19.2 32 28.8 69.29 28.8 111.99 0 42.1-9.6 79.5-28.8 112-18.67 32.5-44.8 58.1-78.4 76.8-33.07 18.7-70.67 28-112.8 28Zm0-67.2c27.2 0 51.46-6.1 72.8-18.4 21.86-12.3 38.93-29.6 51.2-52 12.26-22.9 18.4-49.3 18.4-79.2 0-30.4-6.14-56.5-18.4-78.39-12.27-22.4-29.34-39.73-51.2-52-21.34-12.26-45.6-18.4-72.8-18.4-27.2 0-51.47 6.14-72.8 18.4-21.34 12.27-38.4 29.6-51.2 52-12.8 21.89-19.2 47.99-19.2 78.39 0 29.9 6.4 56.3 19.2 79.2 12.8 22.4 29.86 39.7 51.2 52 21.33 12.3 45.6 18.4 72.8 18.4Zm406.21 62.4v-423.99h73.6v115.2l-7.2-28.8c11.73-29.33 31.46-51.73 59.2-67.2 27.73-15.46 61.86-23.2 102.4-23.2v74.4c-3.2-.53-6.4-.8-9.6-.8h-8c-41.07 0-73.6 12.27-97.6 36.8-24 24.54-36 59.99-36 106.39v211.2h-76.8Zm565.44 4.8c-42.67 0-75.73-11.5-99.2-34.4s-35.2-55.7-35.2-98.4v-388.79h76.8v385.59c0 22.9 5.6 40.5 16.8 52.8 11.73 12.3 28.27 18.4 49.6 18.4 24 0 44-6.7 60-20l24 55.2c-11.73 10.1-25.87 17.6-42.4 22.4-16 4.8-32.8 7.2-50.4 7.2Zm-206.4-365.59v-63.2h270.4v63.2h-270.4Zm593.65 365.59c-35.2 0-68.8-4.8-100.8-14.4-31.46-9.6-56.26-21.3-74.4-35.2l32-60.8c18.14 12.3 40.54 22.7 67.2 31.2 26.67 8.5 53.87 12.8 81.6 12.8 35.74 0 61.34-5.1 76.8-15.2 16-10.1 24-24.3 24-42.4 0-13.3-4.8-23.7-14.4-31.2-9.6-7.5-22.4-13.1-38.4-16.8-15.46-3.7-32.8-6.9-52-9.6-19.2-3.2-38.4-6.9-57.6-11.2-19.2-4.8-36.8-11.2-52.8-19.2-16-8.5-28.8-20-38.4-34.4-9.6-14.9-14.4-34.7-14.4-59.19 0-25.6 7.2-48 21.6-67.2 14.4-19.2 34.67-33.86 60.8-44 26.67-10.66 58.14-16 94.4-16 27.74 0 55.74 3.47 84 10.4 28.8 6.4 52.27 15.74 70.4 28l-32.8 60.8c-19.2-12.8-39.2-21.6-60-26.4-20.8-4.8-41.6-7.2-62.4-7.2-33.6 0-58.66 5.6-75.2 16.8-16.53 10.67-24.8 24.54-24.8 41.6 0 14.4 4.8 25.59 14.4 33.59 10.14 7.5 22.94 13.3 38.4 17.6 16 4.3 33.6 8 52.8 11.2 19.2 2.7 38.4 6.4 57.6 11.2 19.2 4.3 36.54 10.4 52 18.4 16 8 28.8 19.2 38.4 33.6 10.14 14.4 15.2 33.6 15.2 57.6 0 25.6-7.46 47.7-22.4 66.4-14.93 18.7-36 33.3-63.2 44-27.2 10.1-59.73 15.2-97.6 15.2Z" fill="#FCD116"/>
  <path d="M1149.52 9476.7h7691.95" stroke="#FCD116" stroke-width="50" stroke-linecap="round"/>
</svg>
